Coolbeaty - Ameri ichinose 720 

.....................................GENERAL INFO..................................



Format : MPEG-4 
Format profile : JVT 
Codec ID : avc1 
File size : 977 MiB 
Duration : 51mn 56s 
Overall bit rate mode : Variable 
Overall bit rate : 2 631 Kbps 
Encoded date : UTC 2011-08-08 19:43:35 
Tagged date : UTC 2011-08-08 19:43:35 



.......................................VIDEO.......................................



Format : AVC 
Format/Info : Advanced Video Codec 
Format profile : Main@L3.0 
Format settings, CABAC : Yes 
Format settings, ReFrames : 2 frames 
Codec ID : avc1 
Codec ID/Info : Advanced Video Coding 
Duration : 51mn 56s 
Bit rate : 2 500 Kbps 
Maximum bit rate : 6 736 Kbps 
Width : 1 280 pixels 
Height : 720 pixels 
Display aspect ratio : 16:9 
Frame rate mode : Constant 
Frame rate : 29.970 fps 
Color space : YUV 
Chroma subsampling : 4:2:0 
Bit depth : 8 bits 
Scan type : Progressive 
Bits/(Pixel*Frame) : 0.091 
Stream size : 929 MiB (95%) 

........................................AUDIO......................................


Format : AAC 
Format/Info : Advanced Audio Codec 
Format profile : LC 
Codec ID : 40 
Duration : 51mn 56s 
Bit rate mode : Variable 
Bit rate : 127 Kbps 
Maximum bit rate : 141 Kbps 
Channel(s) : 2 channels 
Channel positions : Front: L R 
Sampling rate : 48.0 KHz 
Compression mode : Lossy 
Stream size : 47.1 MiB (5%) 
Encoded date : UTC 2011-08-08 21:06:21 
Tagged date : UTC 2011-08-08 21:06:23 

